<?xml version="1.0" encoding="utf-8"?>
<!-- Generator: Adobe Illustrator 21.0.0, SVG Export Plug-In . SVG Version: 6.00 Build 0)  -->
<svg version="1.1" id="图层_1" xmlns="http://www.w3.org/2000/svg" xmlns:xlink="http://www.w3.org/1999/xlink" x="0px" y="0px"
	 viewBox="0 0 594 143.2" style="enable-background:new 0 0 594 143.2;" xml:space="preserve">
<style type="text/css">
	.st0{fill-rule:evenodd;clip-rule:evenodd;}
</style>
<g id="原版">
	<path id="deco-strok_1_" class="st0" d="M467.5,97.4c0.3,0,0.8,0,1.4,0C468.8,97.4,468,97.4,467.5,97.4z M491.1,101.3
		c0.1-0.1-1.2,0-1.7,0C489.9,101.3,490.3,101.3,491.1,101.3z M493.4,101.4c-0.5,0-1.6,0-1.7,0C492.1,101.4,493.4,101.4,493.4,101.4z
		 M500.2,101c-0.4,0-1.3,0-1.7,0C499,100.9,500,101,500.2,101z M504.4,101.6c-1.3,0-2.3,0-2.9,0C502.6,101.6,504,101.6,504.4,101.6z
		 M515.4,99c-1-0.1-4-0.1-5.5-0.1C511.6,98.9,513.5,98.9,515.4,99z M515.7,100.2c0.5,0,0.9,0,1.4,0c0.7,0,4.4,0.1,4.1,0
		c-2.3,0-5.6-0.1-7.4-0.1C514.5,100.2,515.1,100.2,515.7,100.2z M537.2,100.7c0,0,0,0-0.2-0.1c-0.6,0-0.8,0-0.7,0L537.2,100.7z
		 M554.2,100.5c2.4,0-0.1,0-1.2,0c-0.5,0-0.5,0-0.7,0c-1.9-0.1-5.2-0.1-6.7-0.1C548.9,100.4,551.1,100.4,554.2,100.5z M548.3,101
		c-0.7,0-1.3,0-1.7,0C546.9,101.1,548.2,101.1,548.3,101z M551.1,99.4c-0.7,0-1.9,0-2.2,0C549.5,99.4,550.7,99.4,551.1,99.4z
		 M551.1,100.8c-0.8,0-1.9,0-2.7,0C549.4,100.9,551.8,100.9,551.1,100.8z M552.4,101.1c-1,0-2.4,0-2.9,0
		C550.5,101.1,551.8,101.1,552.4,101.1z M553,99.1c-0.7,0-1.6,0-1.7,0C551.9,99.1,552.8,99.1,553,99.1z M557.1,99.5
		c-1.3,0-4-0.1-4.8-0.1C554.2,99.5,555.4,99.5,557.1,99.5z M557,101.1c-1,0-2.8-0.1-4.1-0.1C554.3,101.1,555.7,101.1,557,101.1z
		 M558,100.5c-0.7,0-1.4,0-1.9,0C556.9,100.5,558.2,100.6,558,100.5z M560.1,100.7c-0.8,0-1.4,0-1.9,0
		C558.8,100.7,559.9,100.7,560.1,100.7z M561.5,100.9c0,0-0.1,0,0.5,0c0.4-0.1-1.4-0.1-1.7-0.1C560.9,100.9,560.9,100.9,561.5,100.9
		z M565.3,100C562.1,99.9,564.1,100,565.3,100L565.3,100z M571.1,99.6c-1.2,0-2.1,0-3.1,0C568.5,99.5,570.3,99.6,571.1,99.6z
		 M569.9,99.5c0.4,0-1.5-0.1-1.2,0L569.9,99.5z M572.7,98.8c-0.6,0-1.3,0-1.7,0C571.3,98.8,572.5,98.8,572.7,98.8z M577.7,99
		C580.4,99,579.7,98.9,577.7,99L577.7,99z M528.1,98.2c-1,0-2.4,0-3.1-0.1c-0.4,0-0.8,0-1.2,0C525.6,98.1,526.9,98.2,528.1,98.2z
		 M551.4,99.7c-0.2,0.1-2.3,0-2.7,0c2.4,0,8.3,0.2,11,0.1c-2.8,0-4.4-0.1-5.7-0.1c0,0,0.1,0,0.3,0C553.3,99.7,552.7,99.7,551.4,99.7
		c0,0,0.3,0,0.3,0c-0.7,0-0.6,0-1.2,0C550.1,99.7,551.5,99.7,551.4,99.7z M554.2,100.9c-0.1,0-1.1,0-1.2,0c0.1,0,0.3,0,0,0
		C550.8,100.9,553.9,100.9,554.2,100.9z M562.9,101c0.3,0,0.6,0,0.2,0c-2.2,0.1-6.7-0.1-8.7,0c4.4,0,9,0.2,13.2,0.1
		c0.4,0,0.8,0,1.2,0c1.3-0.1,5.1,0.1,7,0.1c-1-0.1-3.5-0.1-5-0.1l0-0.1C568.3,101.1,564.8,101,562.9,101z M570.7,99.3
		c-0.5,0-1,0-1.5,0C569.7,99.4,570.9,99.3,570.7,99.3z M95.9,114c1.5-0.2,3-0.3,4.5-0.4c0.8,0,0.5,0.1,2.3,0c3.3-0.3,6-0.9,7.4-0.8
		c3.1-0.1,8.2-0.7,12.4-1c2.9-0.2,5.8-0.4,8.6-0.6c2.8-0.2,5.6-0.5,7.9-0.6c2.2-0.2,4.2-0.3,6.4-0.5c6.5-0.5,13-1.1,19.3-1.5
		c3.8-0.4,8.6-0.7,11.9-0.9c4.3-0.4,8.2-0.6,11.9-0.9c2.5-0.2,4.7-0.3,7-0.4c0.7,0,1.4-0.1,2.1-0.1c2.2-0.1,4.4-0.3,6.7-0.4
		c2.2-0.1,4.1-0.2,6.4-0.4c6.3-0.4,14.5-0.8,22.2-1.3c0.5,0,0.9,0,1.4-0.1c5-0.3,9.7-0.6,14.1-0.8c5.5-0.3,12.4-0.7,18.2-1
		c5.2-0.3,10.4-0.4,15.6-0.6c3.8-0.2,8-0.3,12-0.5c1.4,0,2.9-0.1,4.3-0.1c2.1-0.1,4.1-0.2,6.2-0.3c3.7-0.1,7.4-0.3,11.2-0.4
		c3.4-0.1,6.9-0.3,10.3-0.4c1.2,0,2.6-0.1,3.8-0.1c0.8,0,1.7-0.1,2.4-0.1c4.2-0.2,9.6-0.4,14.6-0.5c3.4-0.1,6.8-0.3,10.1-0.4
		c1.7-0.1,3.4-0.1,5.1-0.2c1.7,0,3.5-0.1,5.4-0.1c5.5-0.1,11.4-0.2,17.5-0.2c7.8-0.1,16-0.2,24.2-0.3c8.8-0.1,17.6-0.2,26.1-0.4
		c0.3,0,0.8,0,1.4,0c0.9,0,0.7-0.1,1.7-0.1c0.8,0,0.4,0,0.9,0c7.4-0.1,14.8-0.1,21.8-0.2c1.2,0,0,0,0.9,0c4-0.1,9.9,0.1,14.8,0.1
		c2,0,4.2,0.1,6.2,0.1c0.5,0,0.4,0,0.7,0c0.6,0,0.2,0,0.7,0c0.1,0,1.1,0,1.7,0c5.1,0.1,10,0.2,15.1,0.2c0.9,0,0.9,0,2.4,0.1
		c1.1,0,0.9,0,1.9,0c0.2,0,2.2,0,1.4,0c0.4,0,0,0,0.2,0c0.9,0,4,0,5.8,0.1c2.2,0,4.6,0.1,7.2,0.2c-2.5,0-4.5,0-5.2,0.2
		c2.4,0.1,7.1,0.1,9.5,0.2c5.8,0.1,13.1,0.2,19.7,0.3c0.5,0,0.8,0,0.7,0c6.7,0.1,13.6,0.2,21.1,0.3c-13.5-0.2-26.4-0.3-39.6-0.5
		c-2.9,0-10.6-0.2-15.1-0.2c-2.7,0-4,0.1-2.8,0.2c3.5,0.1,6.5,0.1,9.8,0.2c0.6,0.1,1.2,0.1,0.4,0.2c-6.8,0-14.7-0.2-20.2-0.2
		c-0.9,0-2,0-3.1,0c-0.5,0-1,0.1-1.5,0.1c0.2,0,0.7,0,0.7,0.1c6.5,0.1,11.5,0.4,18.3,0.5l2.8,0.2c2.2,0,5.3,0.1,8.2,0.1
		c0.6,0,0.4,0,0.7,0c6.5,0.1,12.4,0.1,18,0.3c-4.9-0.1-10-0.1-14.6-0.2c-0.7,0-1,0-1.5,0.1c-4.1-0.1-10.1-0.2-15.1-0.2
		c-0.7,0-0.9,0.1,1.1,0.2c-0.6,0-0.9,0-1.7,0c0,0,0.2,0,0.5,0c-2.7,0-3.1,0-5.7-0.1c-0.5,0-0.7,0.1-0.3,0.1c2.2,0,4.2,0.1,6.2,0.1
		c1.2,0,2.1,0,3.1,0c0.5,0,0.6,0,1.2,0c0.5,0,1.5,0,1.9,0c0.6,0,1,0,1.7,0.1c2.5,0,5.3,0,7.9,0.1c2,0,3.9,0.2,6.2,0.2
		c-0.9,0.1-2.5,0-4.1,0c-5.1,0-11.1-0.1-15.4-0.1c-0.5,0.1,0.5,0.1,0.9,0.2c1.5,0,2.4,0,3.6,0c0.7,0-0.3,0,0.3,0
		c3.2,0,6.1,0.1,9.8,0.1c0.4,0.1,1.3,0.1,0.7,0.1c0.5,0,0.6,0,1,0c1,0,0,0,0.3,0c0.7,0.1,2,0,2.6,0.1c4.6,0,7.8,0.1,13,0.1
		c-3.2,0-7.6,0-12-0.1c-0.9,0,0.2,0-0.5,0c-1.2,0-2.2-0.1-3.3-0.1c-1.4,0-1.9,0-3.1,0c-1.5,0-3,0-4.6,0c-1.4,0-2.5,0.1-4.1,0
		c-0.6,0-0.3,0.1-1.5,0.1c-0.2,0,1.2,0.1,0.4,0.1c-0.9,0-0.1,0-0.7,0c-0.9,0-1.2,0-1.7,0c-2.1-0.1-4.2-0.1-6.5-0.1
		c-0.7,0,1,0.1,0.2,0.1c-0.9,0-3.8-0.1-4.6,0c-2.5,0-3.9-0.1-6.7-0.1c-0.9,0-0.1,0.1-0.5,0.1c-1.8,0-2.8,0-4.8-0.1
		c-1.1,0-3.2,0-4.8,0c-0.1,0.1,1.1,0.1,2.1,0.1c-0.6,0-2.4,0-3.1-0.1c-5.4,0-9.9,0.1-16.1,0c-0.9,0-1.3,0.1-2.2,0c-0.3,0-0.3,0,0,0
		c-3.5,0-11.2,0.1-13.5,0.2c-1,0,0.4,0-0.2-0.1c-1.3,0.1-3.5,0-4.3,0.1c-3.5,0.1-7,0-9.8,0.2c-0.8,0-1.8,0-2.1,0
		c-1.5,0.1-4.2,0.1-6,0.1c-22.4,0.3-45.7,0.7-68.3,1.1c-5.4,0.1-11.9,0.4-17,0.6c-1.7,0.1-3.2,0.1-4.8,0.2
		c-7.2,0.3-16.1,0.6-22.3,0.9c-4.8,0.1-10,0.4-15.1,0.6c-2.1,0.1-4,0.1-6,0.2c-0.7,0-1.6,0.1-2.4,0.1c-3.3,0.1-6.7,0.2-10,0.3
		c-2,0.1-3.5,0.2-5.3,0.2c-5.8,0.2-13.3,0.4-19.9,0.9c-1.7,0.1-3.4,0.2-5,0.3c-0.8,0.1-1.8,0.1-2.7,0.2c-3,0.2-7.1,0.4-10.3,0.6
		c-1.6,0.1-3.3,0.2-5,0.3c-3.6,0.2-7.1,0.5-10,0.6c-3.8,0.3-10,0.6-14.8,0.9c-0.2,0-0.4,0-0.5,0.1c-3.6,0.2-7.1,0.4-10.5,0.6
		c-0.6,0-0.6,0.1-1,0.1c-1.7,0.1-2.9,0.2-4.5,0.3c-3.3,0.1-6.1,0.3-8.9,0.5c-2.7,0.2-5.3,0.4-8.1,0.6c-3.1,0.3-6.6,0.5-9.8,0.8
		c-0.8,0.1-1.8,0.2-2.7,0.3c-0.8,0.1-1.4,0.1-2.1,0.1c-0.6,0.1-1.2,0.1-1.9,0.2c-1,0.1-2.1,0.1-3.1,0.2c-1,0.1-2,0.2-2.9,0.3
		c-1.1,0.1-2.1,0.1-3.1,0.2c-2.6,0.2-4.9,0.5-8.1,0.6c-2.1,0.2-4.2,0.4-6.7,0.6c-1.4,0.1-3,0.3-4.1,0.4c-0.7,0-1.5,0.1-2.1,0.1
		c-3.3,0.2-6.6,0.6-10,0.8c-4.7,0.5-12.5,1.1-15.5,1.6c0.1,0.1-0.7,0.2-1.7,0.3c-1.2,0.1-1.8,0.1-3.3,0.2c-2,0.2-6.7,0.6-9,0.8
		c-0.8,0.1-1.9,0.3-2.7,0.4c-1.9,0.2-3.8,0.3-5.9,0.5c-1.2,0.2-2.6,0.3-3.1,0.4c-1.9,0.2-4,0.3-4.5,0.2c-0.7,0.1-0.7,0.1-1.4,0.1
		c-2.1,0-8.3,0.7-12.3,1.1c-0.6,0.1-1.6,0.2-2.1,0.2c-5.4,0.5-9.4,0.8-13.4,1c0,0-0.5,0-0.7,0c-1.8,0.1-3.4,0.2-5.2,0.4
		c-0.3-0.1-1.8,0.1-1.8,0c-1.2,0.1-2.2,0.1-3.5,0.2c-1,0-2.6,0.2-3.5,0.2c-1.3,0-1-0.2-2.7-0.1c0.6-0.3-0.4-0.5-0.4-0.8
		c-0.1,0-0.6,0-0.4,0c2.4-0.4,1.3-0.5,2.6-0.8c0.4-0.1,1.5-0.3,1.9-0.4c1.1-0.2,1.5-0.4,2-0.5c5.5-0.9,10.1-1.6,15.3-2.4
		c0.2,0,0.8-0.1,1.2-0.1c2.3-0.3,5.1-0.7,7.7-1.1c1.5-0.3,4.4-0.6,7.9-1c1.2-0.1,1.8-0.2,3.6-0.4c2.4-0.3,4.7-0.5,7-0.8
		c2.7-0.2,5-0.5,7.6-0.7c1.1-0.1,2.3-0.3,3.4-0.4C92.8,114.1,94.1,114.1,95.9,114z M509.4,100.7c-0.2,0-0.3,0-0.2,0
		C507.8,100.7,508.9,100.8,509.4,100.7z M509.9,100.8c1.8,0,2.2,0,4.5,0.1c0.5,0,1.1,0,2.2,0c0.1-0.1,3,0,2.9-0.1
		c-1.5,0-2.5-0.1-3.3-0.1c-0.6,0,0.1,0.1-0.3,0.1c-1.4-0.1-4.2-0.1-6.2-0.1C509.6,100.7,510.3,100.7,509.9,100.8z"/>
	<path id="text_1_" d="M31,79.3c1.7-1.2,2.7-1.8,2.9-1.7c0.2,0.1-0.7,1.3-2.8,3.4c-3,3.1-3.7,5.2-2.2,6.5c0.4,0.5,0.8,0.3,1.2-0.4
		c0.3-0.4,0.6-0.6,0.8-0.6c0.2,0,0.4,0.2,0.7,0.5c0.7,1.1,0.8,2.4,0.3,3.8c-0.5,1.4-1.3,2-2.4,1.7c-0.6-0.2-1.6-1.1-2.9-2.7
		c-1.3-1.6-1.9-2.8-2-3.4c0-0.6,0.7-1.7,2.2-3.3C28.3,81.5,29.7,80.2,31,79.3z M52.5,56.7c3.3-0.9,5.6-0.9,6.9,0.1
		c0.6,0.4,0.9,0.8,1,1.1c0.1,0.3-0.1,0.9-0.5,1.9c-0.5,1.4-1.5,2.9-2.8,4.5c-1.4,1.6-2,2.8-2,3.5c0,0.6-0.3,1-1,1.3
		c-0.7,0.3-2.1,0.8-4.3,1.6c-3.5,1.1-5.4,1.9-5.7,2.5c-0.4,0.8-1.1,1.2-2,1.2c-0.9-0.1-1.4-0.5-1.6-1.4l-1.2-5.1
		c-0.5-2.6-1-4.5-1.4-5.8c-0.8-1.5-0.7-2.3,0.2-2.3c0.9-0.1,1.7,0.7,2.5,2.2l1.1,1.6l1.7-1.7C45.8,59.6,48.8,57.9,52.5,56.7z
		 M65.4,69c1.4-0.2,3-0.3,4.7-0.3c1.7,0.1,2.8,0.3,3.4,0.7c0.7,0.6,0.7,1.4,0.1,2.3c-0.6,0.9-1.6,1.6-3,2.1c-1.5,0.5-2.5,0.6-3,0.5
		c-0.5-0.1-0.6-0.6-0.3-1.3c0.2-0.5,0.1-0.8-0.1-1c-0.3-0.1-1-0.1-2.2,0.2c-1.4,0.2-2.8,0.7-4.2,1.3c-1.4,0.6-2.1,1.1-2.1,1.6
		c0,0.3,0.8,0.5,2.3,0.7c1.3,0.2,3.1,1,5.3,2.5c2.2,1.5,4.4,3.3,6.5,5.4c1.3,1.3,2,2.1,2.3,2.6c0.3,0.5,0.3,0.9,0,1.4
		c-0.4,0.8-1.2,1.3-2.4,1.5c-1.2,0.2-4.2,0.4-9.1,0.6c-4,0.1-6.7,0.1-8.2,0c-1.5-0.1-3.1-0.4-4.8-0.9c-1.7-0.5-3-1-4-1.7
		c-0.9-0.7-2.5-2-4.6-4.1c-3.2-3-4.8-4.7-4.8-5.4c-0.1-2,1.8-1.2,5.7,2.2c2.9,2.7,5.3,4.5,7,5.4c1.8,0.9,3.9,1.4,6.6,1.6
		c2.4,0.2,5.4,0.2,8.9-0.1c3.5-0.2,5.2-0.5,5.2-0.9c0-0.4-1.2-1.6-3.4-3.8c-2.3-2.2-4.3-3.5-6.1-4c-1.6-0.5-3.1-0.8-4.7-0.8
		c-1.6,0-2.7,0.2-3.5,0.7c-0.8,0.5-1.5,0.6-2.2,0.3c-0.7-0.3-1-0.9-1.1-1.6c0-0.9,0.2-1.3,0.8-1.3c0.5,0,2.8-1,6.8-2.9
		C61.4,70.5,64,69.4,65.4,69z M41,45.6c-0.1-1.4,0.1-2.2,0.5-2.3c0.4-0.1,1,0.6,1.8,1.9c0.9,1.3,1.6,1.9,2.3,1.9
		c0.6,0,1.1,0.4,1.4,1.3c0.3,0.9,0.2,2-0.1,3.2c-0.5,1.7-1.3,2.6-2.4,2.8c-0.9,0.2-1.4-0.5-1.4-2c0-0.9-0.3-1.8-0.9-2.8
		C41.5,48.6,41.2,47.3,41,45.6z M53.1,40c0.7-0.2,1.3-0.3,1.8-0.1c0.5,0.1,1,0.3,1.6,0.3c0.9,0,1.8,0.3,2.5,1.1
		c0.8,0.8,1.1,1.5,0.9,2.3c-0.2,0.8-1.1,2.2-2.7,4.2c-1.7,2.1-2.7,3.1-3.1,3.1c-0.5,0-0.9,0.3-1.4,0.8c-1,0.9-2.9,2.4-5.8,4.4
		c-2.9,2-4.6,3.1-5.2,3.1c-1.3,0-0.3-1.2,3.1-3.6c0.1-0.2,0.2-0.3,0.3-0.3c2.5-1.7,5-3.9,7.5-6.6c2.5-2.7,3.6-4.5,3.4-5.4
		c-0.2-0.9-0.9-1.4-2.1-1.4c-1.2-0.2-1.8-0.5-1.9-1.1C52,40.5,52.4,40.2,53.1,40z M55.8,61.1l1.4-2.3l-1.2,0c-0.7,0-1.9,0.3-3.6,0.8
		c-1.7,0.5-3.1,1.1-4.1,1.7l-2.6,1.2c-0.8,0.4-1.5,1.1-2.1,2.2c-0.6,1.1-0.9,2.2-0.9,3.4c0,0.8,0.1,1.2,0.3,1.3
		c0.2,0.1,0.5,0.1,1-0.1c2.5-0.8,4.9-2,7.1-3.6C53.3,64.3,54.9,62.7,55.8,61.1z M127.6,32.8c0-0.9,0.4-1.4,1.2-1.4
		c0.8,0,1.3,0.3,1.6,0.9c0.3,0.6,0.8,1.4,1.7,2.2l1.5,1.1l-0.9,3.6c-0.5,2.5-0.9,4.2-1.2,5.1l-0.3,1.2l3.9-1.7
		c11.2-4.7,16.8-5.9,16.8-3.7c0,0.1,0,0.3-0.1,0.6c-0.5,1.5-2.1,2.4-5,2.7c-2.9,0.5-4.9,0.9-6.2,1.2c-1.2,0.3-3.1,1.1-5.7,2.2
		c-2.5,1.1-4.1,2-4.7,2.6c-0.6,0.6-1.4,2-2.4,4.3c-1.4,3-2.3,4.6-2.5,4.8c-0.3,0.1-0.4,0.4-0.4,0.7c0,0.6-1,2.5-3.2,5.8
		c-2.1,3.3-3.9,5.7-5.3,7.2c-3.9,4.3-7.5,6.1-11.1,5.3c-0.9-0.2-1.4-0.6-1.4-1c0-0.5,0.7-0.6,2-0.5c2.1,0.3,4.5-0.9,7.1-3.7
		c2.6-2.8,5.4-7.1,8.5-13c2.5-4.7,3.7-7.2,3.7-7.4c0-0.2-0.3-0.1-1,0.1c-0.7,0.2-1.5,0.5-2.5,0.8c-1,0.3-1.9,0.7-2.6,1.2
		c-4.8,2.2-8.9,3.7-12.1,4.6c-3.2,0.8-5.2,0.8-5.8-0.1c-0.6-0.6-0.6-1.2,0-2c0.6-0.8,1.3-0.9,2.1-0.5c0.6,0.3,2.3,0,5.3-1
		c3.2-1.2,6.7-2.6,10.8-4.3c4-1.6,6.2-2.6,6.7-3.1c0.5-0.3,1-1.8,1.7-4.5c0.5-1.7,0.8-3,0.9-3.7c0.1-0.7-0.1-1.7-0.3-2.7
		C127.9,34.9,127.6,33.7,127.6,32.8z M128.2,77c-0.5-9.6-0.4-14.9,0.1-15.9c0.5-1,0.9-1.5,1.2-1.5c0.4,0,0.7,0.3,1.1,0.9
		c0.4,0.6,0.6,1.2,0.6,1.9c0,0.7,0.1,1.1,0.4,1.2c0.2,0.1,0.9,0.1,2.1-0.1c2.2-0.2,3.6,0.2,4.3,1.2c0.7,1,0.4,2.2-0.9,3.8
		c-2.1,2.2-1.8,4,0.8,5.4c2.4,1.1,2.9,2.3,1.5,3.6c-0.7,0.5-1.5,0.6-2.4,0.1c-0.9-0.5-1.8-1.3-2.6-2.6c-0.9-1.4-1.4-2.5-1.5-3.4
		c-0.1-0.9,0.1-1.8,0.7-2.8c0.6-0.9,0.8-1.5,0.5-2c-0.3-0.4-0.7-0.6-1.3-0.5c-0.6,0.1-0.9,0.3-1.1,0.8c-0.3,0.6-0.3,4.8,0.2,12.6
		c0.5,7.8,0.5,12,0.3,12.7c-0.4,0.7-0.9,1-1.4,1c-0.5,0-1-0.3-1.3-1C129,91.7,128.7,86.6,128.2,77z M134.7,55.2c4-2.1,6.6-2.2,8-0.2
		c0.4,0.6,0.7,1.9,0.9,4.2c0.2,2.2,0.4,7.4,0.5,15.6c0.3,8.8,0.3,14.1,0.3,16c-0.1,1.8-0.4,3.1-0.9,3.7c-1.6,1.7-3.5,1.2-5.9-1.5
		c-0.8-0.9-1.5-2-2.1-3.5c-0.6-1.5-0.7-2.4-0.3-2.8c0.2-0.3,0.6-0.2,1.2,0.2c0.6,0.5,1,1,1.1,1.6c0.2,0.9,0.7,1.7,1.3,2.4
		c0.6,0.7,1.2,1,1.9,1c0.3,0,0.4-1.1,0.4-3.1c0-2.1-0.1-6.6-0.3-13.6c-0.4-11.2-0.6-17-0.8-17.4c-0.5-1.4-2.4-1.1-5.9,0.8
		c-1.8,1-2.9,1.4-3.1,1.2c-0.4-0.4-0.2-1.1,0.6-2.1C132.3,56.6,133.4,55.8,134.7,55.2z M188.3,41.6c2.6-0.4,4-0.6,4.2-0.7
		c0.2-0.1,0.6,0,1.1,0.5c0.3,0.3,0.5,0.8,0.6,1.6c0.1,0.8,0,2.3-0.3,4.7c-0.3,3.7-0.5,7.5-0.8,11.3c-0.3,3.8-0.5,6.1-0.8,6.7
		c-0.1,0.6,0.1,0.6,0.8,0c0.3-0.2,0.6-0.4,0.9-0.8l4-3.7c1.5-1.4,3-3.6,4.8-6.6c0.2-0.2,0.4-0.1,0.8,0.1c0.3,0.1,0.1,0.7-0.5,1.9
		c-0.6,1.2-1.4,2.5-2.4,4.1c-1,1.6-2.1,3-3.2,4.3l-3.8,4.5c-1.3,1.5-3.3,3.6-6.1,6.3c-2.8,2.6-4.6,4.1-5.5,4.5
		c-1,0.6-1.9,0.8-2.5,0.7c-0.7-0.2-1-0.6-1-1.2c0-0.6,0.6-1.5,1.9-2.9c1.2-1.3,2.4-2.7,3.5-4.2c1.1-1.5,1.7-2.4,1.7-2.8
		c0-0.4-0.7-1.5-2.1-3.4c-1.4-1.9-2.1-3.4-2.1-4.5c0-1.1,0.6-2.1,1.9-3c1.5-1,2.9-1.7,4.3-2c1.4-0.3,2.2-0.6,2.3-1
		c0.2-0.4,0.3-2.3,0.3-5.6l0-4.9l-2.6-0.5c-0.6,0-1.3-0.2-2-0.5c-0.7-0.3-1.2-0.6-1.4-1c-0.3-0.4-0.3-0.6-0.1-0.8
		C184.3,42.2,185.7,41.9,188.3,41.6z M189.2,61.7c0.2-1.5-0.1-2.1-1-2c-0.8,0-1.8,0.6-3.1,1.8c-0.5,0.4-0.7,0.8-0.7,1.1
		c0,0.3,0.2,0.8,0.6,1.6c0.7,1.3,1.4,1.9,2.1,1.9c0.5,0,0.8-0.3,1-0.8C188.4,64.8,188.7,63.6,189.2,61.7z M203.9,41.1
		c-0.5-2.1-0.7-3.3-0.5-3.7c0.2-0.4,0.7-0.6,1.4-0.6c0.7,0,1.4,0.8,1.9,2.3c0.9,2.8,1.6,3.7,2.1,2.7c0.3-0.4,1.6-1.2,4-2.4
		c2.4-1.2,4.5-2.1,6.3-2.6c3.8-1.2,6.7-0.8,8.9,1.1c1.1,1.1,1.6,2.5,1.6,4.5c0,1.9-0.6,4.1-1.8,6.4c-1.1,2.2-2.5,4.4-4,6.7
		c-1.5,2.2-2.6,3.5-3.2,3.7c-0.6,0.2-1,1.2-1.2,2.9c-0.2,1.7-0.4,2.9-0.6,3.4c-0.1,0.3-0.1,0.4,0.1,0.5c0.2,0.1,0.7,0.1,1.3,0.1
		c1,0,1.8,0.2,2.2,0.7c0.5,0.5,0.6,1.3,0.5,2.3c-0.2,0.9-1.9,3-4.9,6.2c-3.1,3.3-4.6,5.1-4.6,5.6c0,0.4,0.5,0.8,1.4,1
		c0.9,0.2,2.7,0.1,5.2-0.2c2.5-0.3,3.9-0.6,4.2-0.9c0.5-0.4,0.9-0.4,1.4-0.2c0.4,0.1,0.5-0.1,0.4-0.6c0-0.2,0-0.5-0.1-1
		c-0.5-2.4,0.6-2.2,3.3,0.5c0.9,0.9,1.4,1.5,1.6,1.9c0.2,0.4,0.3,0.9,0.1,1.5c-0.1,0.5-0.4,0.8-0.8,0.9c-0.4,0.1-1.1,0.2-2.1,0.2
		c-1.5,0-3.7,0.2-6.3,0.7c-4.9,1.1-8.3,0.8-10.2-0.9c-1-0.8-1.4-1.6-1.3-2.5c0.1-0.9,0.8-2.2,2.1-3.9c1.4-2.1,2.2-3.7,2.4-4.6
		c0.2-0.7,0.3-1.1,0.2-1.2s-0.5,0-1,0.3c-0.9,0.4-1.9,0.6-3.1,0.6c-1.2-0.1-1.8-0.4-1.8-1c0-0.3,0.2-0.6,0.6-0.9
		c0.4-0.3,1.5-0.8,3.2-1.6c2.3-1,3.3-3.1,2.9-6.2l-0.2-2.1l-2.7,0.9c-1.7,0.6-2.8,0.8-3.2,0.4c-0.4-0.4-0.8-1.6-1.3-3.8
		c-0.4-2-0.7-3.6-1-4.7c-0.2-1.1-0.4-2-0.6-2.7c-0.2-0.7-0.3-1.1-0.5-1.3c-0.2-0.2-0.3-0.3-0.5-0.3c-0.4,0.1-0.6-0.7-0.7-2.5
		C204.7,45.2,204.4,43.2,203.9,41.1z M215.3,44.6c0.1-1.2,0.1-2,0-2.4c-0.1-0.4-0.3-0.5-0.7-0.5c-1.5,0.1-3.1,0.9-4.9,2.5
		c-0.6,0.5-0.9,0.9-0.9,1.3c0,0.4,0.1,1,0.3,1.8c0.5,1.8,0.9,2.8,1.1,3c0.2,0.2,0.9-0.1,1.9-0.9c1.4-1,2.3-1.5,2.5-1.7
		C214.9,47.5,215.2,46.5,215.3,44.6z M216,53.2c-0.2-1.1-0.4-1.7-0.7-1.8c-0.3-0.1-1.1,0-2.5,0.4c-0.9,0.4-1.5,0.7-1.6,0.9
		c-0.2,0.2-0.2,0.7,0,1.5c0.2,1,0.8,1.9,1.6,2.7c0.5,0.7,0.9,1,1,1c0.1,0,0.2-0.3,0.4-0.9c0.2-0.8,0.6-1.3,1.2-1.5
		C215.9,55.2,216.1,54.5,216,53.2z M224.6,40.1c-1.1-0.9-2.6-1.1-4.6-0.6c-0.4,0.2-0.7,0.5-0.7,0.9c-0.1,0.4-0.1,1.4-0.1,3
		c0.1,2.4,0.2,3.6,0.5,3.6c0.4,0,0.7,0.4,0.9,1.2c0.3,0.8,0.2,1.3-0.1,1.6c-0.4,0.3-0.6,0.9-0.7,2c-0.1,1.1,0.1,1.7,0.4,1.9
		c0.3,0.2,1.1-0.6,2.3-2.3c1.2-1.8,2-3.5,2.6-5.1C226.1,43.5,225.9,41.4,224.6,40.1z M271.3,44c2.1-0.6,3.9-0.3,5.1,0.9
		c0.9,0.8,1.4,1.4,1.4,1.8c0,0.6-0.3,1.7-1,3.2c-0.7,1.5-1.6,2.9-2.7,4.3c-0.9,1.2-1.6,2-2.1,2.4c-0.5,0.4-1,0.5-1.5,0.4
		c-0.6-0.1-1,0-1.4,0.5c-0.4,0.5-1,1.6-1.9,3.2c-1.2,2.7-1.8,4.1-1.8,4.4c0,0.3,0.5,0.3,1.4,0.1c0.9-0.2,2.7,0.4,5.5,1.8
		c2.8,1.4,4.4,2.6,5.1,3.6c0.6,0.9,0.7,1.7,0.1,2.2c-0.8,1.2-1.8,1.2-2.9,0.1c-0.6-0.5-1.2-0.7-1.6-0.7c-0.4,0-0.6-0.1-0.6-0.5
		c0-0.3-1.1-1.1-3.3-2.3c-3.5-2.1-5.3-2.6-5.2-1.6c0,0.4-0.9,2.1-2.9,5c-1.5,2.2-3,3.8-4.5,4.9c-1.5,1.1-2.5,1.4-3.1,0.9
		c-0.5-0.4,0-1.4,1.5-3.1c5-5.6,8.7-12.4,11-20.4c0.7-2.7,1.3-4.2,1.8-4.4c0.5-0.2,1.1-0.2,1.7,0.2c0.6,0.4,0.9,0.9,0.9,1.4
		c-0.1,0.6,0,0.9,0.3,0.9c0.5,0,1.2-0.9,2.1-2.6c0.9-1.7,1.3-2.9,1.1-3.4c-0.5-0.7-1.3-0.8-2.4-0.4c-1.1,0.4-2.3,1.2-3.6,2.5
		c-1.3,1.3-2.3,2.6-3,3.9c-0.8,1.9-1.7,3.8-2.9,5.7c-1.1,1.9-1.9,3-2.4,3.3c-1.3,0.8-2,0.1-2.3-2c-0.1-0.7-0.1-1.5-0.1-2.5
		c0.3-4.1-0.4-7.2-2-9.1c-0.6-0.7-1-1.2-1.1-1.5c-0.1-0.3,0-0.6,0.4-1.1c0.5-0.8,1.2-1.1,2.3-0.8c1,0.3,1.9,1.2,2.7,2.6
		c0.8,1.4,1.2,2.4,1.2,3.2c0.1,1.9,0.8,2,2.1,0.3c0.2-0.2,0.3-0.3,0.4-0.5c0.8-1.2,2.2-2.6,4.1-4.2C269.1,45.2,270.4,44.3,271.3,44z
		 M294.6,30.4c0.2-0.8,0.8-1.1,1.9-0.9c0.9,0.2,1.6,0.7,2.1,1.4c0.5,0.7,0.7,1.4,0.6,2.3c-0.2,0.7-0.4,2.5-0.4,5.3
		c0,2.8,0,5.2,0,7.4c0.1,2.1,0.1,3.4,0.2,3.8c0.7,0,1.4-0.4,2.3-1c0.8-0.7,1.2-1.2,1.1-1.6c0-0.2,0-0.3,0-0.3c0-0.1,0.2-0.1,0.5-0.3
		c0.3-0.1,0.6-0.2,1.1-0.3c0.4-0.1,1-0.1,1.6-0.1c2-0.2,3.4-0.1,4,0.2c0.7,0.3,0.9,0.9,0.7,1.8c-0.2,0.8-1,1.4-2.4,1.7
		c-1.7,0.3-3.6,1-5.5,2.1c-1.9,1.1-3,1.9-3.2,2.6c-0.2,0.8-0.1,3.9,0.4,9.4c0.3,4.6,0.6,9.2,0.7,13.9c0.1,4.7,0.1,7.6-0.1,8.8
		c-0.1,0.9-0.5,1.4-1.2,1.5c-0.7,0.1-1.5-0.2-2.3-0.9c-0.7-0.5-2.4-1.9-5-4.1c-2.6-2.2-3.9-3.5-3.9-4c0-0.5,0.1-0.7,0.4-0.7
		c0.3,0,1.2,0.5,2.9,1.5c1.7,1,3,1.9,3.8,2.5c1.1,0.9,1.7,1.3,1.9,1.1c0.1-0.2,0.1-3,0-8.4c-0.2-5.4-0.3-8.8-0.5-10
		c-0.2-1-0.3-2.4-0.4-4.2c-0.1-1.5-0.3-2.2-0.6-2.2c-0.3,0-0.9,0.9-1.7,2.6c-2.1,4.4-5.5,9-10,13.8c-3,2.9-4.3,3.8-4.1,2.8
		c0.1-0.9,1.5-3.2,4.1-6.9c4.7-6.4,7.4-11.1,8.3-13.9c0.1-0.6,0-0.9-0.3-0.9c-1.2,0-4.9,1.3-11.2,3.9c-2.3,0.9-3.9,1.5-4.7,1.6
		c-0.8,0.1-1.5-0.3-2.2-1.1c-0.4-0.6-0.6-0.9-0.5-1.1c0-0.2,0.2-0.5,0.6-1c0.6-0.7,1.3-1,2.1-0.8c0.5,0.1,3.8-0.8,9.9-2.8
		c6.1-2,9.5-3.2,10-3.6c0.2-0.1,0.1-2.8-0.1-8.2c-0.2-5.4-0.4-8.6-0.6-9.4C294.4,32.2,294.4,31.2,294.6,30.4z M354.7,52
		c1-0.1,2.7-0.6,5.1-1.5c2.4-1,3.6-1.5,3.7-1.5c0.1-0.1,0.4,0.2,1.1,0.9c0.7,0.6,0.8,1.2,0.2,1.8c-0.5,0.6-1.9,1.5-4,2.6
		c-2.7,1.4-4.2,2.4-4.5,3.1c-0.2,0.9-0.3,1.6-0.2,2.1c0.1,0.5,0.4,0.8,0.8,0.8c0.7,0,0.9-0.3,0.7-0.7c-0.3-0.5,0-0.7,0.7-0.9
		c1-0.2,1.8,0.1,2.5,0.8c0.5,0.5,0.7,1,0.6,1.6c-0.1,0.6-0.6,1.1-1.5,1.5c-0.5,0.4-0.6,0.7-0.5,0.9c0.1,0.2,0.7,0.7,1.7,1.5
		c2.6,1.8,3.5,3.9,2.8,6.1c-0.2,0.5-0.5,0.8-1.1,0.9c-0.5,0.1-1,0-1.4-0.4c-0.4-0.4-0.6-1-0.7-1.7c0-0.6-0.5-1.2-1.5-2
		c-1-0.7-1.8-1.1-2.5-1.1c-0.4,0-0.7,0.3-0.8,0.9c-0.1,0.6-0.2,2.2-0.1,4.8c0.2,2.7,0.2,4.4,0.1,5c-0.1,0.6-0.4,0.9-1,1
		c-0.8,0.1-1.7-0.6-2.7-2.2c-1.5-2.1-1.8-3.1-1.2-3.1c0.2,0,0.4,0,0.8,0.1c0.6,0.1,0.9,0,1-0.5c0-0.5-0.1-1.4-0.3-2.7
		c-0.3-2.3-0.5-3.5-0.6-3.6c-0.1-0.1-1.6,0.6-4.4,2.1c-1.8,1-2.9,1.7-3.3,2.1c-0.5,0.4-0.7,1-0.7,1.8c-0.2,1.2,0.1,2.1,0.7,2.6
		c0.6,0.5,0.9,1.1,0.8,1.9c-0.1,0.8-0.5,1.3-1.3,1.6c-1,0.5-1.8,0.4-2.3-0.2c-0.5-0.6-0.9-1.9-1.2-3.8c-0.3-1.8-0.7-2.9-1.2-3.1
		c-0.5-0.2-0.8-0.6-0.9-1.3c0-0.6,0.5-1.4,1.7-2.3c1.1-0.9,1.9-1.2,2.3-1c0.3,0.3,1.9-0.3,4.8-1.6c2.9-1.3,4.6-2.3,5.1-3
		c0.3-0.3,0.3-0.8,0-1.6c-0.2-0.5-0.3-0.8-0.5-0.9c-0.1-0.1-0.5,0-1,0.2c-0.7,0.4-1,0.4-1,0c0-0.6,0.5-1.3,1.4-1.9
		c1.4-1.1,1.7-1.7,0.9-1.8c-0.2-0.1-0.6,0-1.2,0.2c-1,0.2-4.9,1.7-11.7,4.5c-6.8,2.8-10.6,4.1-11.3,4.2c-0.3,0-0.7-0.1-1.1-0.5
		c-0.4-0.3-0.7-0.7-0.8-1.1c-0.1-0.4,0-0.7,0.2-0.9c0.4-0.2,4.9-1.9,13.5-5.2c8.6-3.2,13-5,13.2-5.1C353.1,52.1,353.7,52,354.7,52z
		 M352.7,33.4c6.4-3.3,9.3-4,8.7-2c-0.4,1.1-1.8,3.1-4.2,5.9c-3,3.2-4.4,4.8-4.4,4.9c0,0.1,1.6-0.6,4.7-2c1.7-0.9,2.8-1.4,3.4-1.4
		c2.3-0.1,3,0.9,2.3,3c-0.7,2.5-2.8,4.8-6.3,6.8c-0.2,0.1-0.3,0.2-0.5,0.3c-1.4,0.7-2.1,1.2-2.3,1.3c-0.2,0.2-0.8,0.6-1.9,1.2
		c-1.1,0.6-1.8,1-2.1,1.1c-0.1,0.1-0.2,0-0.3-0.1c-0.1-0.1-0.1-0.2-0.1-0.3c0-0.6,0.8-1.6,2.5-3.1l4.7-4.6l2.3-2.2l-3.4,1.9
		c-2.2,1.3-3.9,2.4-4.9,3.4c-1.4,1.2-3,1.8-4.7,1.8c-1.7,0-2.6-0.5-2.6-1.8c0-0.5,0.9-1.7,2.9-3.6c1.9-1.9,3.4-3.5,4.5-4.7
		c1-1.1,1.4-1.7,1.1-1.7c-0.1,0-0.4,0.1-0.9,0.3c-0.9,0.2-2.1,0.7-3.5,1.5c-2.1,1-4.1,1.6-6.1,1.9c-2,0.3-3.3,0.1-4.1-0.5
		c-1.3-0.9-0.9-1.7,1-2.2c0.6-0.2,1.3-0.3,2.3-0.5c2.6-0.4,4.4-0.9,5.5-1.2C347.5,36.2,349.6,35.1,352.7,33.4z M350.4,24
		c0.7-0.6,2.3-0.9,4.8-0.8c2.6,0.1,4.2,0.4,4.8,1.1c0.6,0.6,0.7,1.2,0.4,2c-0.4,0.7-1.1,1.1-2.1,1.2c-1,0.1-1.8-0.2-2.5-0.7
		c-0.5-0.6-1.1-0.8-1.8-0.8c-0.7,0-1.7-0.2-3-0.6c-0.8-0.2-1.3-0.4-1.4-0.6C349.6,24.7,349.8,24.4,350.4,24z M377.5,25.8
		c1.7-0.5,2.8-0.1,3.3,1c0.6,1.3-1.7,4.7-6.8,10c-4.1,4.2-6.2,6.1-6.5,5.5c-0.1-0.2-0.1-0.4-0.1-0.5c0-0.3,0.8-1.7,2.5-4.1
		c1.7-2.4,3.4-4.7,5.1-6.8c1-1.3,1.6-2.5,1.6-3.5C376.6,26.5,376.9,25.9,377.5,25.8z M367.6,47.1c0-0.8,0.2-1.2,0.8-1.2
		c0.5,0,1.1,0.5,1.5,1.4c0.4,1,0.8,4.4,1.2,10.1c0.3,5.7,0.3,9-0.1,9.9c-0.3,0.6-0.8,1-1.4,1.1c-0.6,0.1-0.9,0-1.1-0.5
		c-0.2-0.2-0.4-3-0.7-8.4C367.6,54,367.5,49.9,367.6,47.1z M388.9,43.4c1-0.2,1.6-0.3,1.9-0.4c0.3-0.1,0.5,0.3,0.7,1
		c0.2,0.7,0.2,1.3,0.1,1.6c-0.2,0.4-1.1,1-2.7,1.6c-1.2,0.5-2,0.9-2.2,1.3c-0.2,0.4-0.4,1.2-0.5,2.6c-0.2,2-0.2,8.8,0.1,20.3
		c0.3,11.5,0.3,17.5-0.1,18c-0.3,0.5-0.8,0.4-1.4-0.3c-0.5-0.4-0.9-1.7-1.1-3.8c-0.2-2.1-0.4-7.4-0.7-16
		c-0.5-12.6-0.8-18.9-0.9-18.9c-0.3,0-1,0.3-2.2,1c-1.2,0.7-2.3,1.3-3.1,1.9c-0.5,0.5-1.1,0.8-1.8,1.1c-0.7,0.3-1.3,0.4-1.8,0.4
		c-0.5,0-0.8-0.2-0.8-0.5c0-1,1.9-2.7,5.9-5.1c2.5-1.5,4.2-2.6,5-3.2C384.5,44.8,386.4,43.9,388.9,43.4z M431.2,26.8
		c0-0.7,0.4-1.1,1.3-1.1c0.9,0,1.5,0.3,1.8,0.9c0.3,0.6,0.4,2.3,0.2,5.1c-0.2,2.4-0.1,4.3,0.4,5.5c0.5,1.3,1.3,2.1,2.6,2.5
		c1.4,0.5,3,0.8,4.7,0.9c0.8,0,1.4,0.1,1.6,0.3c0.2,0.2,0.4,0.7,0.4,1.5c0,1-0.3,1.6-1.1,2c-4.7,1.1-7.8,2-9.5,2.9
		c-1.7,0.9-2.7,2.2-3.1,3.9c-0.4,1.7-1.1,4-1.9,6.8c-0.8,2.8-1.2,4.4-1.2,4.8c0,0.4,0.8-0.2,2.3-1.8c1.5-1.6,3.3-3,5.3-4.2
		c2.1-1.2,3.9-2,5.5-2.3c1.4-0.2,2.6,0,3.6,0.7c1.3,1,2.2,3,2.8,5.9c0.5,3,0.4,5.4-0.4,7.5c-0.5,1.4-0.7,2.2-0.7,2.4
		c0,0.3,0.9,0.8,2.7,1.5c1.8,0.8,3,1.3,3.5,1.7c0.6,0.3,1.9,1,4,2c1.9,0.8,3.5,1.7,4.6,2.7c1.1,1,1.7,1.9,1.7,2.8
		c0,0.9-0.2,1.4-0.8,1.5c-0.5,0.1-1.2-0.2-2-0.9c-0.5-0.6-3.1-2-7.8-4.3c-4.7-2.3-7.3-3.4-7.9-3.4c-0.4,0-0.9,0.4-1.7,1.1
		c-0.8,0.7-2,1.6-3.8,2.6c-1.8,1-3.9,1.6-6.3,1.7c-2.4,0.1-4.3-0.2-5.8-1c-1.4-0.8-2.1-1.4-2.3-1.7c-0.4-0.9-1-0.8-1.8,0.4
		c-0.2,0.5-0.3,1-0.4,1.6c-0.6,2.2-1.1,3.6-1.5,4.2c-0.4,0.6-1,0.8-1.8,0.7c-0.6-0.1-1-0.2-1.2-0.4c-0.2-0.2-0.2-0.8-0.1-1.7
		c0.2-1.9,1.8-6.7,5-14.5c0.8-1.8,1.7-4.7,2.8-8.5c1.1-3.9,1.6-6.1,1.5-6.7c-0.2-0.1-0.4-0.2-0.4-0.3c-0.1-0.1-0.6,0.1-1.5,0.7
		c-0.9,0.5-2,1.3-3.3,2.2c-1.2,0.9-3.1,2.3-5.5,4.1c-1.7,1.2-2.8,1.7-3.4,1.6c-0.5-0.2-0.7-0.7-0.7-1.4c0-0.7,0.4-2.6,1-5.5
		c0.6-2.3,1-4.3,1.2-5.9c0.1-1.5,0.3-2.7,0.8-3.5c0.5-0.8,1.1-1.1,1.8-0.9c0.4,0.1,0.6,0.5,0.7,1.1c0.1,0.6,0.1,2,0,4.1
		c-0.2,3.2-0.2,4.7,0.1,4.7c0.3,0,2.1-1.1,5.6-3.3c2.6-1.6,4.1-2.7,4.7-3.3c0.5-0.6,1-1.6,1.3-3c0.4-2,0.8-4.7,1.4-8.3
		C430.7,30.4,431.1,27.5,431.2,26.8z M435.5,72.9c-2.5-0.6-5-0.9-7.5-1.1c-2-0.1-3.2,0-3.7,0.4c-0.5,0.4-0.3,1.2,0.6,2.5
		c1.2,1.8,3.3,2.7,6.3,2.5c1.3,0,2.8-0.4,4.5-1.1c1.7-0.7,2.8-1.3,3.1-1.9C439.2,73.9,438,73.5,435.5,72.9z M442.8,59.6
		c-0.2-1-0.5-1.6-0.7-1.8c-0.3-0.2-0.7-0.3-1.4-0.3c-1.2,0-1.8,0.3-1.8,0.7c0,0.4-0.1,0.5-0.4,0.3c-0.3-0.4-1.3,0.1-3,1.2
		c-1.7,1.2-3.2,2.5-4.6,4.1c-2,2.1-3,3.3-3,3.6c0,0.3,1.6,0.7,4.7,1.3c3.1,0.6,5.7,0.9,7.7,1c1,0.1,1.7,0.1,1.9-0.1
		c0.3-0.1,0.4-0.4,0.4-0.8c0-0.8,0.2-1.3,0.5-1.5c0.4-0.2,0.5-1.3,0.5-3.1C443.6,62.5,443.3,60.9,442.8,59.6z M434.9,40.6
		c-0.9-1.3-1.4-2-1.7-2c-0.2,0-0.3,0.9-0.6,2.6c-0.2,1.7-0.3,2.7-0.1,2.8c0.1,0.1,0.5-0.1,1.5-0.4c0.9-0.3,1.6-0.6,2.1-1
		C436.1,42.7,435.7,42,434.9,40.6z M450.4,33c0.3-0.7,1.7-0.7,4.1,0.1c2.4,0.7,3.9,1.5,4.5,2.4c0.4,0.7,0.4,1.5,0,2.5
		c-0.5,0.9-1,1.5-1.6,1.6c-0.6,0.1-1.1-0.3-1.4-1.1c-0.5-1-1.6-1.7-3.1-2.1c-1-0.2-1.8-0.6-2.4-1.3C450,34.3,450,33.6,450.4,33z
		 M493.2,37.7c0.2-0.6,0.6-0.8,1.2-0.7c0.5,0.1,1.1,0.5,1.5,1.1c0.3,0.8,0.4,2.7,0.2,5.7c-0.2,2.5-0.4,4.8-0.4,6.9
		c0,2.1,0,3.9,0.2,5.1c0.1,1.3,0.4,1.9,0.7,1.8c0.4-0.2,1.8-2.8,4.1-7.8c2.4-5,3.7-7.5,4.2-7.5c0.4,0,0.6,0.1,0.6,0.4
		c0,0.3-0.1,0.6-0.3,0.9c-0.3,0.4-0.9,2-1.9,4.6c-1,2.7-1.6,4.2-1.8,4.5c-0.3,0.3-0.7,1.5-1.3,3.5c-2,5.8-5.1,10.6-9.3,14.3
		c-3.6,3-6,3.4-7.3,1.1c-0.3-0.6-0.4-1.1-0.3-1.6c0.1-0.5,0.7-1.3,1.6-2.6c1.8-2.7,2.9-4.4,3.2-5.1c0.3-0.7,0.3-1.4-0.2-2.2
		c-0.5-1-1.4-1.8-2.6-2.6c-1.2-0.8-1.8-1.5-1.8-2c0-0.7,1-1.9,3.2-3.6c2.1-1.7,3.8-2.5,5-2.6c0.5,0,0.8-0.3,0.9-1
		c0.1-0.6,0.2-2.2,0.2-4.6C492.8,40.1,493,38.1,493.2,37.7z M492.1,53.2c-0.3-0.2-0.5-0.4-0.8-0.4c-0.3,0-0.9,0.3-1.8,1
		c-0.9,0.7-1.5,1.2-1.6,1.5c-0.2,0.4,0,1,0.5,1.8c0.5,0.8,1,1.3,1.4,1.4c0.4,0,0.9-0.8,1.6-2.5C491.9,54.4,492.2,53.4,492.1,53.2z
		 M493.3,30.4c1.6-0.5,2.9-0.8,3.9-1.1c1-0.3,1.8-0.4,2.5-0.3c0.6,0.1,1.1,0.3,1.3,0.6c0.2,0.4,0.3,0.9,0.2,1.6
		c0,0.6-0.2,0.9-0.5,1.1c-0.3,0.2-0.9,0.3-1.9,0.3c-1.5,0.1-3.1,0.5-4.8,1.1c-2.8,1.2-4.7,1.2-5.6,0.2c-0.2-0.3-0.3-0.5-0.4-0.7
		c-0.1-0.2,0.1-0.4,0.5-0.7c0.4-0.3,1-0.6,1.7-0.8C490.8,31.5,491.9,31.1,493.3,30.4z M491.9,64.4c0.1-0.6,0-0.9-0.2-0.9
		c-0.4,0-1.1,0.9-2.2,2.5l-1.4,2.3l1.7-1.5C491.2,65.8,491.8,65,491.9,64.4z M522.8,27.5c1.7-0.6,2.8-0.9,3.3-0.9
		c0.4,0,1.2,0.2,2.4,0.7c1.4,0.4,2.2,1.2,2.4,2.2c0.2,1.1,0.5,1.8,0.7,2.2c0.2,0.8-0.8,3.2-3,7.1c-2.2,3.9-3.7,6.1-4.5,6.6
		c-0.6,0.2-1.2,0.1-2-0.3c-0.8-0.3-1.2-0.7-1.2-1.2c0-0.7-0.7-0.1-2.1,1.6c-0.5,0.6-0.9,1.3-1.3,2c-1.6,2.9-3.5,6.1-5.8,9.8
		c-1.5,2.3-2.3,3.6-2.3,3.7c0,0.2-1.1,2.1-3.3,5.6l-4.1,6.4c-1,1.6-2,3-3.1,4c-1.1,1-1.8,1.5-2.3,1.3c-0.6-0.2-0.6-0.7-0.2-1.6
		c0.5-0.9,2.1-3.7,4.9-8.2c5.8-9.1,10-16.3,12.6-21.6c1.8-3.4,3.3-5.8,4.5-7.4c0.8-1.1,1.4-1.7,1.7-1.8c0.4-0.1,0.8-0.1,1.4,0.2
		c1,0.5,1.4,1.1,1.3,2c-0.2,1-0.1,1.4,0.4,1.1c0.5-0.4,1.1-1.3,2.1-2.8c2.1-3.1,2.8-5.7,2.2-7.6c-0.2-0.6-0.4-1-0.7-1.1
		c-0.3-0.1-1-0.1-2.1,0c-1.4,0.2-2.7,0.7-3.8,1.6c-1,0.6-2.1,1.6-3.2,2.7c-1.1,1.2-1.7,2-1.7,2.4c0,0.3-0.3,0.8-1,1.5
		s-1.2,1.9-1.7,3.6c-1.1,4.6-1.8,7.1-2.1,7.3c-0.4,0.2-0.9,0.1-1.5-0.5c-0.6-0.6-1.1-2.7-1.4-6.2l-0.4-5l-1.6,2.4
		c-0.7,1.2-1.1,1.8-1.1,1.8c-0.2,0,0.2-1.8,1.1-5.4c0.7-2.7,1.1-4.5,1.1-5.6c0-0.8,0.2-1.3,0.7-1.7c0.5-0.4,1-0.4,1.5,0
		c0.5,0.4,0.8,1.6,1,3.5c0.3,3,0.7,4.6,1.1,4.7c0.4,0.1,1.8-1.1,4.1-3.6C518.7,30,521,28.1,522.8,27.5z M540.5,50.9
		c-0.3-2-0.3-3,0.1-2.9c0.4,0.1,1.2,1.5,2.3,4c1.3,3.1,1.9,6.6,1.7,10.4c-0.2,3.8-1.1,6.2-2.8,7.1c-0.6,0.3-2.3,1-5.4,2.2
		c-3.9,1.5-7.7,2.1-11.3,1.9c-3.7-0.2-6-1.1-7.1-2.9c-0.5-1-0.9-3-1.1-5.9c-0.2-2.9-0.1-5.5,0.3-8c0.5-3,1-4.6,1.4-5
		c0.3-0.4,0.9-0.4,1.6,0c0.7,0.4,1,1,0.8,1.8c-0.2,1.7-0.2,4.3-0.3,7.8s0.1,5.5,0.3,6c0.2,1.1,1.1,1.9,2.5,2.4
		c1.5,0.5,3.2,0.6,5.1,0.4c2-0.2,4.2-0.7,6.5-1.7c2.3-0.9,3.9-1.8,4.7-2.5c0.6-0.6,1-1.3,1.1-2c0.1-0.7,0.2-2.2,0.1-4.6
		C541.1,55.7,540.9,52.9,540.5,50.9z"/>
</g>
</svg>
