<?xml version="1.0" encoding="utf-8"?>
<!-- Generator: Adobe Illustrator 21.0.0, SVG Export Plug-In . SVG Version: 6.00 Build 0)  -->
<svg version="1.1" id="图层_1" xmlns="http://www.w3.org/2000/svg" xmlns:xlink="http://www.w3.org/1999/xlink" x="0px" y="0px"
	 viewBox="0 0 542 102" style="enable-background:new 0 0 542 102;" xml:space="preserve">
	 <defs>
		<g id="taijs-slogan-zong-you-li-cai-xin-fa-xian-simplified">
			<path id="deco-stroke" d="M71.1,91.5c53.6-5.9,107.8-8,161.7-11c60.3-3.4,120.8-5,181.2-5.2c22.9-0.1,45.7,0.1,68.6,0.5
				c4.4,0.1,8.8,0.2,13.1,0.3c-2.5,0-4.5,0-5.2,0.2c4.3,0.2,8.6,0.2,13,0.3c2.6,0,15.5-1.5,17,0.2c6.7,0.1,13.6,0.2,21.1,0.3
				c-11.4-0.1-22.9-0.3-34.3-0.4c-3.8,0-7.5-0.1-11.3-0.2c-3.4-0.1-9-1.1-12.3-0.1c2.1-0.7,8.7-0.1,11,0.4c-3.9-0.9-9.2,0-13.2-0.1
				c-3.9,0-7.9-0.2-11.9,0c0.2,0,0.7,0,0.7,0.1c16,0.2,32,0.6,47.9,1.1c-5.7-0.1-11.4-0.1-17-0.1c-4,0-10.9-1.6-14.6-0.2
				c0.5,0.1,1,0.2,1.6,0.1c-0.6,0-0.9,0-1.7,0c0,0,0.2,0,0.5,0c-1.7,0-4.6-0.5-6.2,0c3.3-1,9,0.2,12.7,0.2c5.3,0.1,10.5,0.3,15.8,0.3
				c-6.4,0.5-13-0.1-19.5-0.1c4.9-0.6,10.5,0.8,15.2,0.4c-0.5,0,2-0.1,1.2,0c5,0.7,10.5,0.1,15.6,0.2c-9.9,0.1-19.2-0.1-29.1-0.1
				c0.1,0,1,0.1,0.4,0.1c-2.4,0-7.8,0-8.5,0c-7.1-0.6-14.4,0.1-21.5-0.1c-0.1,0.1,1.1,0.1,2.1,0.1c-7,0.5-14.4,0.1-21.4-0.1
				c-4.5,0-9.4-0.4-13.8,0.2c-7.7,1.1-18.7,0.3-27.3,0.4c-13.6,0.2-27.2,0.4-40.8,0.6c-24.6,0.4-49.2,1.3-73.8,2.3
				c-45.4,1.8-90.8,3.6-136.1,7.5c-22.7,1.9-46.1,2.1-68.6,5.8c-1.3-1-10.8,1.1-12.7,1.3c-5.2,0.6-10.5,1.2-15.8,1.6
				c-10.3,0.8-20.7,1.9-31,2.6c-0.7-0.5-5.2,0.3-5.8,0.3c-0.3-0.1-1.8,0.1-1.8,0c-3.2,0.1-6.4,0.1-9.6,0.2c0.6-0.3-0.4-0.5-0.4-0.8
				c-0.1,0-0.6,0-0.4,0C27.3,96.7,48.9,93.2,71.1,91.5z"/>
			<path id="text_1_" d="M6.2,56.8c-0.2,0.1,2.5-1.9,2.9-1.7c0.4,0.3-8.1,7.3-5,9.9c1,1.2,1.3-2.1,2.7-0.5c3.3,5.2-3.8,6.9-6,1.3
				C-0.8,61.9,3,59,6.2,56.8z M27.7,34.2c1.9-0.5,6.9-1.7,7.9,1.2c0.6,1.9-2.4,4.9-3.4,6.4c-1.3,1.9-2.1,4-4,5.2
				c-2.4,1.6-6.1,2.2-8.8,3.4c-4.3,2-4-0.6-4.9-4.9c-0.3-1.2-2.4-7.3-1.6-8c1.4-1.2,3.3,2.4,4,3.5C19.9,37.9,23.5,35.6,27.7,34.2z
				M40.6,46.5c1.7-0.3,7.5-1.3,8.4,0.9c0.9,2.3-3.6,4.9-5.5,4.3c-1.6-0.5-0.2-1.9-1.8-2.3C40.3,49,34,50.9,34,52.5
				c0-0.6,11.6,6.1,12.6,7c3.1,2.8,6.3,5.5,0.8,7.1c-7.1,2.1-20,1.5-26.1-2.7c-1.7-1.2-8.3-6-8.4-8.3c-0.1-4.2,6,2.3,7.2,3.2
				c3.8,3.2,6.9,5,11.9,5.4c1.4,0.1,14.1,0.4,14.1-1C46,61,39.8,56.8,38,55.9c-1.7-0.8-4.1-1.4-6-1.3c-1.4,0-5.1,1.6-6.1,0.6
				C22.8,52.4,38,47.2,40.6,46.5z M16.2,23.1c-0.3-0.9-0.1-1.7,0.5-2.3c0.3-0.1,3.7,3.4,4,3.8c1.2,1.6,2.5,2.7,1,5.3
				C18.4,35.4,16.5,26,16.2,23.1z M28.3,17.5c2.4-0.8,6.3,0.4,6.8,3.1c0.5,2.3-3.6,6.2-5.2,7.5c-1.5,1.3-12.5,9.8-13.5,8.6
				c-0.6-0.7,3.4-3.3,3.6-3.4c0.1-0.2,0.2-0.3,0.3-0.3c2.8-1.8,10.2-7.1,10.5-10.6C31,20.1,26.5,18,28.3,17.5z M31,38.6l1.4-2.3
				c-3.8,0-10.6,1.9-13.2,5.3c-0.7,0.9-1.7,2.8-1.4,4c0.7,2.3,0.9,1.1,3.1,0.6C24.5,45.4,29.3,41.7,31,38.6z M102.8,10.3
				c-0.1-3.9,4.9,2.1,6,2.8c-0.8,3.3-1.6,6.6-2.3,9.9c2.4-1,21.3-9.4,20.7-4.7c-1.2,3.7-10.9,3.8-14.3,5c-7.2,2.8-8.6,5.7-12,12.4
				c-2.1,4.1-4.5,8.1-7.3,11.8c-2,2.6-4.4,5.3-7.5,6.7c-1,0.5-6.8,2.1-6.8-0.3c0-0.4,5.2-1.2,6.1-1.6c2.7-1.5,4.8-4.7,6.6-7.2
				c2.1-3,3.8-6.3,5.5-9.5c0.7-1.3,3.2-4.6,3.2-6.3c0-0.2-11.2,4.3-11.7,4.5c-2.2,0.9-10.4,4.8-12.3,2.1c-2.7-2.6,4.5-2.7,5.4-2.9
				c4.7-1,9.4-3.5,13.8-5.3c3.5-1.4,5-1.7,6.7-4.8C105,18,102.9,15,102.8,10.3z M103.4,54.5c-0.2-3.3-2.1-12.9,0.1-15.9
				c2.6-3.5,1.6,1.3,3.4,2.4c1.8,1.1,5.7-1.6,6.6,1.6c0.8,2.7-3.2,4.1-2.1,6.9c0.4,1.2,7.2,4.9,2.2,5.8c-2.4,0.4-5.3-4.4-5.4-6.3
				c0-0.6,1.3-3.8,1.3-4c-0.3-0.7-1.8-2.5-2.4-0.5c-1.3,2.2-0.1,7.8,0,10.1c0.2,3.4,2,10.5,0.5,13.8c-1.2,2.7-2,2.7-3.1,0
				C102.8,64.6,103.6,58.4,103.4,54.5z M109.9,32.7c6.2-3.3,8.5-0.7,9,5.3c0.5,6.3,0.4,12.8,0.5,19.1c0.1,3.7,1.2,9.1,0,12.7
				c-2.8,8.4-11.2-3.9-9.1-5.8c1-1.6,5.7,11.5,5.8,1.3c0.1-7-0.3-14.1-0.6-21.1c-0.1-2.2,0.8-8.4-1.4-9.8c-2.3-1.4-5.2,3.1-7.1,2.5
				C104.4,36.3,107.9,33.7,109.9,32.7z M163.5,19.1c2.3-0.3,4.3-1.5,5.6,0.6c1.2,1.9-0.1,6.9-0.3,8.8c-0.1,1.1-0.8,15.1-1.2,15.1
				c3.4-0.1,9.2-9.5,10.4-11.6c0.2-0.2,0.4-0.1,0.8,0.1c2.2,0.8-23.7,33.2-25,24.6c-0.5-3.1,7.1-6.1,7-9.5c-0.1-3.5-5.6-5.4-3.7-9.6
				c1.8-3.9,6.9-2.2,8.3-6.2c0.8-2.3,0.1-6.3,0.1-8.8c-0.8-0.1-7.4-1.7-6-2.8C159.5,19.7,160.9,19.4,163.5,19.1z M164.4,39.2
				c0.6-3.9-5.9-0.9-4.2,2.5C162.4,45.9,163.8,41.4,164.4,39.2z M179.1,18.6c-0.3-1.4-1.4-5.2,1.5-4c1.9,0.8,1.1,4.6,3,5.1
				c0.5,0.1,6.4-3.6,6.8-3.8c2.7-1.2,6-2.5,9-2.1c7.3,1.1,5.6,8.7,3.1,13.6c-1.6,3.2-3.9,5.8-5.8,8.7c-1.5,2.3-1.8,4.1-2.5,6.9
				c0.3-0.6,4.3,1.6,4.1,3.7c-0.2,2.7-4.9,6.1-6.6,8c-1.7,1.9-4,3.2-1.5,4.8c1.3,0.8,8.5-0.1,9.3-1.1c0.5-0.4,0.9-0.4,1.4-0.2
				c0.9,0.2-0.1-2.9,0.5-3.2c2-0.9,6.1,4.6,4.1,6.5c-1.4,1.4-9.9,1.3-11.8,1.4c-2.8,0.2-8-0.1-8.2-4c-0.1-2.3,6.3-7.8,4.6-9.8
				c-0.4-0.5-4.4,2-5.4,0.6c-1.2-1.6,1.6-2.1,2.6-2.8c3.4-2.5,4-4.4,3.5-8.7c-5.9,2.2-6.4,0.9-7.7-5.1
				C181.7,28.1,180.3,23.9,179.1,18.6z M190.5,22.1c0.3-6-8-0.7-5.9,3.7C186.6,29.8,190.3,25.3,190.5,22.1z M191.2,30.7
				c-0.3-2-2.8-2.7-4.3-0.9c-0.9,1.1,0.1,5.5,2,5.5C189.6,35.3,191.3,31.2,191.2,30.7z M199.8,17.6c-4.9-4.4-5.7,2.9-5.2,6
				c0.3,1.6,1,2,1.1,3.8c0,0.8-1.8,3.1-0.3,4C197.1,32.3,202.7,20.4,199.8,17.6z M246.5,21.5c8.7-2.3,6,6.5,2.8,10.2
				c-1.7,2-3.6,2.3-5.3,3.9c-0.8,0.8-3.5,5.5-3.2,6.6c0.2,0.7,8.6,3,10.1,4.3c1.2,1.1,3.6,2.9,1.2,4.3c-1.6,0.9-3.5-1.2-4.8-2.1
				c-1.6-1-4.4-3.6-6.3-3.6c-2.6,0-0.8-0.2-2.3,1.3c-0.8,0.8-10.1,14-10,8.6c0-1.7,4.2-5.3,5.2-6.8c1.8-2.6,3.3-5.4,4.6-8.3
				c1.3-2.9,1.7-7,3.3-9.6c0.3-0.5,0.5-1.9,1.2-2.1c3-1,1.8,2.6,2.9,2.6c1.4,0,3.6-4.9,3.2-6.1c-4-5.4-11.4,11.9-12.9,13.4
				c-5.3,5.4-3.2-6.7-4.5-9.9c-0.7-1.7-3.3-3.4-1.4-5c2.9-2.4,4.5,3.4,5.5,4.8c1.7,2.3,0.7,2.1,3.2-0.1
				C241.1,25.8,243.2,22.6,246.5,21.5z M269.8,7.9c0.8-2.9,4.8,0.7,4.6,2.7c-1.5,4.5-0.9,11.7-0.2,16.4c0.9,0,3.7-1.4,3.3-2.7
				c0-1.7,15.2-1.2,3.7,3.1c-8.9,3.3-7,7.5-6.4,16c0.2,3.1,3,19.4,0.1,21.5c-1.9,1.4-4.2-1.3-5.6-2.5c-0.1-0.1-7.3-6.7-6-6.7
				s8.1,5.6,8.6,5.2c1.1-1.5-0.9-25-1.5-24.9c-1.4,0.1-5.4,8.9-6.4,10.2c-0.9,1.2-7.5,10.3-9.3,9.3c-0.8-0.4,9.8-15.8,10.8-17.7
				c4-7.7-4.9-2.4-8.9-0.9c-1.8,0.7-6.4,3.5-8,0.9c-1.5-2.6,1.6-2.7,3.3-3.2c5.5-1.7,14.3-2.4,18.8-6.2C272.9,27.6,269,11,269.8,7.9z
				M329.9,29.5c2.1-0.1,12.3-5.7,9.7,0c-0.9,2-5.3,2.5-6.8,4.1c-1.1,1.2-1.4,5.5,0,4c0.7-0.7-0.4-2.2,2-1.3c2,0.8,2.3,2.9,0.3,3.8
				c-1.8,1.7,6.6,5.1,4,8.5s-3.9-6-7.5-3.8c-2.6,1.5,1.8,9.6-0.8,10.8c-1.4,0.7-4.3-1.5-4.3-3.4c0-2.8,1.3,0.2,1.7-1.8
				c0-1.2,0-5.4-1-6.3c-1.6-1.5-8.4,4.6-8.4,6.7c0,1.6,2.4,3,1.1,4.7c-1.6,2.1-3,0.4-3.8-1c-0.6-1-1.3-4-1.5-5.1
				c-0.4-2.3-1.1-3.2,2-4.7s8.4-1.3,10.8-4.6c2.6-2.3-2-2-2.2-2c-1.2-0.1,3.3-3.9,2.1-4.1c-2.8-1.3-12.8,4.6-15.3,5.6
				c-2.2,0.9-4.9,2.6-7.3,2.8c-0.4,0-6,0-3.4-2c4.9-2.6,10.8-4.2,16-6.1C321.1,32.6,325.8,29.7,329.9,29.5z M327.9,10.9
				c2.2-1.1,8.2-5.1,8.5-1.5c0.2,3.9-8.4,7-8.3,10.3c0-0.7,8.5-4.2,9.9-3c3.7,3.3-4.7,8-6.3,9.6c-2.9,1.5-10.3,6.3-4.1,0
				c2.3-2.3,4.6-4.5,7-6.8c-3.3,1.9-9.1,7.8-12.9,7.1c-3-0.5-2.7-1.5-1.3-3.7c0.5-0.8,6.7-8,7.3-8.1c-1,0-16.5,6.9-15.2,1.9
				c0.4-1.5,6.2-1.9,7.1-2.1C322.6,13.9,325.1,12.5,327.9,10.9z M325.6,1.5c1.6-1.4,11.9-1.4,10.1,2.3c-1.1,2.2-9.9,0.1-10.8-1.5
				C325.1,2.1,325.4,1.8,325.6,1.5z M352.7,3.3c5.4-1.4,2.4,3.9,1,5.8c-1.4,2-7.3,10.3-10,10.4c-2.5,0.1,0.2-2.5,1.4-4.2
				c1.6-2.3,3.6-4.4,5.1-6.8C350.6,7.7,351.8,3.5,352.7,3.3z M342.8,24.6c-0.1-2.7,2.1,0,2.5,0.7c0.9,1.7,0.7,5.4,0.8,7.2
				c0.2,2.9,0.8,6.1,0.4,9c0-0.2-1.3,7.8-2.8,3.8c-1.1-1.1-0.6-7-0.7-8.4C342.9,32.8,342.7,28.7,342.8,24.6z M364.1,20.9
				c1.5-0.3,3.4-0.2,2.7,2.2c-0.5,1.6-4,1.5-4.9,2.9c-1.3,1.8-0.7,6.3-0.7,8.4c0,5.7,0.2,11.4,0.3,17c0.1,3.5,1.5,10.5,0.1,13.8
				c-1.2,2.7-1.8,1.4-2.5-1.6c-0.8-3.5-0.5-7.6-0.6-11.1c-0.1-1.4-0.8-24.7-1.2-24.7c-1.6,0-14.3,7.5-7.7,1.3
				C352.8,26.2,359.7,21.8,364.1,20.9z M406.4,4.3c-0.1-2.2,2.6-0.7,3.1,0.1c1.2,1.6-0.2,6.2,0,7.9c0.5,3.4,1.8,4.6,5.2,5.5
				c0.7,0.2,3.6-0.1,4,0.5c0.8,1,0.5,3-0.7,3.5c-4.4,1-10,1.7-12.3,6c-1.6,2.9-3.5,9.2-3.4,12.5c-0.1-2,9.5-7.2,11.4-7.8
				c6.2-1.8,8.4,3.8,8.3,9.2c-0.1,5.3-3.1,6.1,2.1,8.7c3.5,1.7,8.7,3.2,11.3,6c3.6,3.9,0.9,4.2-2.2,2.5c-3.6-2-9.1-6.2-13.2-6.5
				c-3.5-0.2-6.1,3.5-9.7,4.4c-2.6,0.7-5.8,0.9-8.3-0.1c-1.6-0.6-3.7-3.5-4.9-1.6c-0.4,1.1-1.8,9.3-4.9,6.1c-1.2-1.2,1.1-6.3,1.5-7.5
				c2.3-6.6,8.4-16.7,7.6-23.9c-3.8-1.8-16.8,15.9-14.3,3.4c0.3-1.6,1.7-13.3,4.3-12.3c1.9,0.8-0.2,9.9,0.8,9.9
				c3.5-0.1,9.9-5.6,11.3-8.6C405.8,17.1,405.8,9.8,406.4,4.3z M410.7,50.4c-2.7-0.6-13.1-3.6-10.6,1.7c2,4.1,12.1,3.1,14-0.5
				C414.4,51.4,413.2,51,410.7,50.4z M418,37.1c-0.9-3.6-3.5-0.4-4.3-1c-1.2-1.4-8.1,5.3-9,6.7c-2,3.3-1.5,2.6,3,3.4
				c2.7,0.5,8.1,2.1,10,0.2C419.8,44.5,418.8,39.3,418,37.1z M410.1,18.1c-0.4-0.8-0.9-1.5-1.7-2c-0.4,0-1.2,5-0.7,5.4
				c0.4,0.4,3.2-1.1,3.6-1.3C411.3,20.2,410.9,19.5,410.1,18.1z M425.6,10.5c1.3-3,13,3.1,7.8,6C432.1,17.2,424.2,12.5,425.6,10.5z
				M468.4,15.2c1-1,1.9-0.9,2.7,0.4c0.7,1.5-0.8,19.9,0.6,19.6c3.3-1.8,4.7-15.2,8.3-15.3c0.5,0-3.9,11.8-4.8,13.9
				c-1.2,3-12.1,23.2-16.6,15.4c-1.7-2.9,3.6-6,4.1-8.5c0.8-4.5-4.5-5-3.9-8.4c0.7-3.7,7.3-3.6,8.7-6.3
				C469.2,23,466.7,18.2,468.4,15.2z M467.3,30.7c-2.1-1.9-6.9,4.2-2.4,5.3C465.9,36,467.6,31.5,467.3,30.7z M468.5,7.9
				c1.3-0.4,11.9-2.5,7,2c-1.2,1.1-10.5,3.2-12,1.5C462.5,9.5,467.2,8.5,468.5,7.9z M467.1,41.9c-0.1-0.3-0.1-0.6-0.2-0.9
				c-1.3,0-3,3.8-3.6,4.8C464.4,44.9,466.9,43.3,467.1,41.9z M498,5c5-1.8,6.5,0,8.7,4.2c0.5,2.5-4.7,12.6-7.2,13.5
				c-2.2,0.8-2.7-1.6-4.5-0.9c-2.1,0.8-3.9,6-5,7.9c-4.1,7-8.3,14.1-12.8,20.8c-1.4,2.1-6.8,8.7-5,2.8c1.8-6,7.5-12.1,10.7-17.5
				c2.9-4.9,5.3-10,8.2-14.8c0.7-1.1,2.7-5.3,4.2-5.6c2-0.3,3.2,3.1,3.1,3.2c1.9-1.8,7.3-10.1,2.8-11.6c-4.7-1.6-10.3,6.3-11.9,9.8
				c-1,2.1-1.4,11.5-4.7,8.6c-1.9-1.7-1.4-8.3-1.6-10.9c-0.4,0.5-2.3,4.2-2.7,4.3c0.4,0.1,2.8-22.1,5.5-8.1c0.8,4,0,3.5,2.9,2.2
				C492.4,11.2,494,6.4,498,5z M515.7,28.4c-0.3-2-0.3-3,0.1-2.9c2.7,0.9,3.8,8.9,3.9,11c0.3,3.3,0.3,7.6-2.2,10
				c-4.2,3.9-17.3,6.6-22.3,3.3c-4.2-2.8-4.5-15.1-1.9-19c1.9-2.9,2.7-1.1,2.9,1.6c0.3,3.6-1.4,8.9,0.1,12.3c1.3,6,14.2,1.6,17-0.3
				C518.2,41.2,516.7,33.6,515.7,28.4z"/>
		</g>
	 </defs>
</svg>
