<svg version="1.1" xmlns="http://www.w3.org/2000/svg" xmlns:xlink="http://www.w3.org/1999/xlink" x="0px" y="0px"
	 viewBox="0 0 126 40" xml:space="preserve">
     <defs>
        <path id="taijs-logo-shape-horizontal" fill="#4285F4" d="M50.9,9.2H39.8l-0.3-1.3h5.7V4.9h-6.4L38.4,3l-5.9-2.8l1.1,4.7H21.2l1.1-4.7L16.4,3
            L16,4.9H9.6v2.9h5.7L15,9.2H3.9l4.3,5.2h5.7l-2.7,12.1l-1.4,6.2c1.3,1.3,2.8,2.5,4.5,3.5c3.8,2.4,8.4,3.7,13.2,3.7
            c4.9,0,9.4-1.4,13.2-3.7c1.6-1,3.1-2.2,4.5-3.5l-1.4-6.2l-2.7-12.1h5.7L50.9,9.2z M20.5,7.9h13.7l0.3,1.3H20.2L20.5,7.9z M39.4,30.9
            c-3.3,2.5-7.5,4-12,4c-4.5,0-8.7-1.5-12-4l3.7-16.5h16.6L39.4,30.9z M74.6,19.3l3,2.2l-3.9,0l-0.4-0.3l-0.2,0.4l-3.6,0l4.1-5.6
            l3.4,0L74.6,19.3z M66.1,19.7h-1.5L61.8,16l-3.7,0l2.6,3.4l-3,2.2l3.7,0l0.7-0.4l0,0l0,0l2.1-1.2L64.1,20l0.2-0.1V20v1.5l2.3,0
            l2.8-1.9v-4.3H66L66.1,19.7z M76.2,13.1l1.3-1.8h-8.2v-0.6l6.9,0L77.6,9h-8.2V8.3l6.9,0l1.2-1.8h-8.1V5.9h-3.7v0.6H58v1.8h7.8V9H58
            v1.8h7.8v0.6H58v1.8h5.9l-6.3,2.5l5.9,0l4.1-1.7l4.2,1.7h5.9l-6.2-2.5H76.2z M97.9,15.8h-3.8l-1.5,3.9l-0.7,1.8h3.8h3.2l1-1.8h-3.5
            L97.9,15.8z M99.5,13.7h-8.1v-1.4h6.9l1-1.8H80.4v1.8h7.3v1.4h-7.3v1.8h7.3v4.3h-7.7v1.8h11.3v-1.8v-4.3h7.1L99.5,13.7z M89.8,7.6
            l4.4,2.4h5.3l-7.2-3.9l-4.7,0v0h-0.5L80.1,10h5.3L89.8,7.6z M85.7,15.9h-3.8l1.3,3.3H87L85.7,15.9z M115.1,10.3V8.5l5.6-0.5l0.9-2
            l-9.8,0.6v15.5h3.2v-9.9h1.8v9.9h3.3v-9.9h0.7l1.1-1.9H115.1z M105.7,8.5l0,1.4h5.4l0,4.8l-3.2,2.2l-2.2,0l0,5.2h-3.2V6.7l9.3-0.7
            l-0.8,2L105.7,8.5z M105.6,11.8V15h2.2l0-3.2H105.6z M58.1,28.1h-1v-1.5h1v-2.4h2v2.4h1.2v1.5h-1.2v5.7h-2V28.1z M70.7,33.8h-1.9
            v-0.9c-0.2,0.2-0.4,0.3-0.6,0.5c-0.2,0.1-0.5,0.3-0.7,0.4c-0.3,0.1-0.5,0.2-0.8,0.2C66.4,34,66.1,34,65.8,34c-0.5,0-1.1-0.1-1.6-0.3
            c-0.5-0.2-0.9-0.4-1.3-0.8c-0.4-0.3-0.7-0.8-0.9-1.2c-0.2-0.5-0.3-1-0.3-1.6c0-0.6,0.1-1.1,0.3-1.5c0.2-0.5,0.5-0.9,0.9-1.2
            c0.4-0.3,0.8-0.6,1.3-0.8c0.5-0.2,1.1-0.3,1.7-0.3c0.4,0,0.8,0.1,1.1,0.2c0.3,0.1,0.6,0.2,0.9,0.4c0.2,0.1,0.4,0.3,0.6,0.4
            c0.1,0.1,0.2,0.2,0.2,0.2h0v-0.9h1.9V33.8z M68.7,30.1c0-0.4-0.1-0.7-0.2-1c-0.1-0.3-0.3-0.5-0.6-0.7c-0.2-0.2-0.5-0.3-0.8-0.4
            c-0.3-0.1-0.6-0.1-0.9-0.1c-0.4,0-0.8,0.1-1.1,0.2c-0.3,0.1-0.6,0.3-0.8,0.5c-0.2,0.2-0.4,0.5-0.5,0.7c-0.1,0.3-0.2,0.5-0.2,0.8
            c0,0.3,0.1,0.6,0.2,0.9c0.1,0.3,0.3,0.5,0.5,0.7c0.2,0.2,0.5,0.4,0.8,0.5c0.3,0.1,0.6,0.2,1,0.2c0.3,0,0.7-0.1,1-0.2
            c0.3-0.1,0.6-0.3,0.8-0.5c0.2-0.2,0.4-0.4,0.5-0.7C68.7,30.8,68.7,30.5,68.7,30.1z M72.2,24.1h2v1.6h-2V24.1z M72.2,26.5h2v7.3h-2
            V26.5z M77.1,33.3c0,0.2,0,0.4,0,0.6c0,0.2,0,0.4-0.1,0.6c-0.1,0.2-0.1,0.4-0.3,0.6c-0.1,0.2-0.3,0.4-0.5,0.5
            C76,35.9,75.8,36,75.7,36c-0.2,0.1-0.3,0.1-0.5,0.2c-0.2,0-0.3,0.1-0.4,0.1c-0.1,0-0.3,0-0.4,0v-0.9c0.3,0,0.6-0.1,0.9-0.2
            c0.2-0.1,0.4-0.2,0.5-0.4c0.1-0.2,0.2-0.4,0.2-0.7c0-0.3,0.1-0.5,0.1-0.8v-6.7h1.1V33.3z M76,24.1h1.1v1.6H76V24.1z M79.5,31.7
            c0,0.3,0.1,0.6,0.2,0.8c0.1,0.2,0.3,0.3,0.4,0.4c0.2,0.1,0.3,0.2,0.5,0.2c0.2,0,0.3,0,0.4,0c0.5,0,0.9-0.1,1.2-0.3
            c0.3-0.2,0.4-0.5,0.4-0.9c0-0.2-0.1-0.4-0.2-0.6c-0.1-0.2-0.3-0.3-0.4-0.4c-0.2-0.1-0.3-0.2-0.5-0.3c-0.2-0.1-0.4-0.1-0.5-0.2
            c-0.2-0.1-0.4-0.1-0.7-0.2c-0.3-0.1-0.5-0.2-0.7-0.4c-0.2-0.2-0.4-0.3-0.6-0.6c-0.2-0.2-0.2-0.5-0.2-0.8c0-0.3,0-0.5,0.2-0.7
            c0.1-0.2,0.3-0.5,0.5-0.6c0.2-0.2,0.5-0.3,0.7-0.4c0.3-0.1,0.6-0.2,1-0.2c0.3,0,0.6,0,0.9,0.1c0.3,0.1,0.5,0.2,0.7,0.4
            c0.2,0.2,0.4,0.4,0.5,0.6c0.1,0.2,0.2,0.5,0.2,0.8v0h-1.1c0-0.2-0.1-0.4-0.2-0.5c-0.1-0.1-0.2-0.3-0.3-0.3c-0.1-0.1-0.2-0.1-0.4-0.2
            c-0.1,0-0.3-0.1-0.4-0.1c-0.2,0-0.4,0-0.6,0.1c-0.2,0.1-0.3,0.2-0.4,0.3c-0.1,0.1-0.2,0.2-0.2,0.3c0,0.1-0.1,0.3-0.1,0.4
            c0,0.2,0,0.4,0.1,0.5c0.1,0.1,0.2,0.2,0.4,0.3c0.2,0.1,0.3,0.2,0.5,0.2c0.2,0.1,0.3,0.1,0.5,0.1c0.2,0.1,0.5,0.2,0.8,0.3
            c0.3,0.1,0.5,0.2,0.8,0.4c0.2,0.2,0.4,0.4,0.6,0.6c0.2,0.3,0.2,0.6,0.2,0.9v0c0,0.3-0.1,0.6-0.2,0.9c-0.1,0.3-0.3,0.5-0.5,0.7
            c-0.2,0.2-0.5,0.4-0.8,0.5C81.9,33.9,81.5,34,81,34c-0.3,0-0.6,0-0.9-0.1c-0.3-0.1-0.6-0.2-0.8-0.4c-0.2-0.2-0.5-0.4-0.6-0.7
            c-0.2-0.3-0.2-0.6-0.2-1v-0.1H79.5z M85.6,32.1h1.1v1.6h-1.1V32.1z M97.5,31.7c-0.1,0.2-0.3,0.5-0.5,0.7c-0.2,0.3-0.5,0.5-0.8,0.7
            c-0.3,0.2-0.7,0.4-1.2,0.6c-0.5,0.2-1,0.2-1.6,0.2c-0.7,0-1.2-0.1-1.8-0.3c-0.5-0.2-1-0.5-1.4-0.8c-0.4-0.3-0.7-0.7-0.9-1.2
            c-0.2-0.5-0.3-0.9-0.3-1.4c0-0.5,0.1-1,0.3-1.5c0.2-0.5,0.6-0.9,1-1.2c0.4-0.3,0.9-0.6,1.4-0.8c0.5-0.2,1.1-0.3,1.7-0.3
            c0.4,0,0.7,0,1.1,0.1c0.4,0.1,0.8,0.2,1.2,0.4c0.4,0.2,0.7,0.4,1,0.7c0.3,0.3,0.6,0.7,0.8,1.1h-1.2c-0.2-0.3-0.4-0.5-0.6-0.7
            c-0.2-0.2-0.5-0.3-0.7-0.5c-0.3-0.1-0.5-0.2-0.8-0.3c-0.3-0.1-0.5-0.1-0.8-0.1c-0.4,0-0.8,0.1-1.2,0.2c-0.4,0.1-0.8,0.3-1.1,0.6
            c-0.3,0.2-0.6,0.6-0.8,0.9c-0.2,0.4-0.3,0.8-0.3,1.2c0,0.4,0.1,0.8,0.3,1.1c0.2,0.4,0.4,0.7,0.7,0.9c0.3,0.3,0.7,0.5,1.1,0.6
            c0.4,0.2,0.9,0.2,1.4,0.2c0.4,0,0.8,0,1.1-0.2c0.3-0.1,0.6-0.2,0.8-0.4c0.2-0.1,0.4-0.3,0.6-0.5c0.2-0.2,0.3-0.3,0.4-0.5H97.5z
            M98.7,30.3c0-0.6,0.1-1.1,0.4-1.5c0.2-0.5,0.6-0.9,1-1.2c0.4-0.3,0.9-0.6,1.4-0.8c0.5-0.2,1.1-0.3,1.6-0.3c0.6,0,1.2,0.1,1.7,0.3
            c0.5,0.2,1,0.5,1.4,0.8c0.4,0.3,0.7,0.7,0.9,1.2c0.2,0.5,0.3,0.9,0.3,1.4c0,0.5-0.1,1-0.3,1.4c-0.2,0.5-0.5,0.9-0.9,1.2
            c-0.4,0.3-0.8,0.6-1.4,0.8c-0.5,0.2-1.1,0.3-1.7,0.3c-0.6,0-1.2-0.1-1.7-0.3c-0.5-0.2-1-0.5-1.4-0.8c-0.4-0.3-0.7-0.7-0.9-1.2
            C98.8,31.2,98.7,30.7,98.7,30.3z M99.8,30.2c0,0.4,0.1,0.8,0.3,1.2c0.2,0.4,0.4,0.7,0.7,0.9c0.3,0.3,0.7,0.5,1.1,0.6
            c0.4,0.1,0.8,0.2,1.2,0.2c0.4,0,0.8-0.1,1.2-0.2c0.4-0.1,0.7-0.3,1.1-0.6c0.3-0.3,0.6-0.6,0.8-0.9c0.2-0.4,0.3-0.8,0.3-1.3
            c0-0.5-0.1-0.9-0.3-1.2c-0.2-0.4-0.5-0.7-0.8-0.9c-0.3-0.2-0.7-0.4-1.1-0.6c-0.4-0.1-0.8-0.2-1.1-0.2c-0.4,0-0.8,0.1-1.2,0.2
            c-0.4,0.1-0.7,0.3-1.1,0.6c-0.3,0.3-0.6,0.6-0.8,0.9C99.9,29.3,99.8,29.8,99.8,30.2z M110.1,27.5c0.2-0.3,0.5-0.6,0.9-0.7
            c0.4-0.2,0.8-0.3,1.3-0.3c0.6,0,1.2,0.1,1.6,0.4c0.5,0.2,0.9,0.6,1.2,1c0.7-0.9,1.6-1.4,2.8-1.4c0.5,0,0.9,0.1,1.3,0.2
            c0.4,0.1,0.8,0.3,1.1,0.6c0.3,0.3,0.5,0.6,0.7,1c0.2,0.4,0.2,0.8,0.2,1.3v4.2h-1.1v-4.1c0-0.8-0.2-1.4-0.6-1.8
            c-0.4-0.4-1-0.6-1.7-0.6c-0.7,0-1.3,0.2-1.7,0.6c-0.4,0.4-0.6,1-0.6,1.8v4.1h-1.1v-4.1c0-0.8-0.2-1.4-0.6-1.8
            c-0.4-0.4-1-0.6-1.7-0.6c-0.7,0-1.3,0.2-1.7,0.6c-0.4,0.4-0.6,1-0.6,1.8v4.1h-1.1v-7.2h1.1V27.5z"/>
    </defs>
    <linearGradient id="rainbow" x1="0%" y1="0%" x2="100%" y2="0">
        <stop offset="0%" stop-color="#00ff00"></stop>
        <stop offset="7.1428571429%" stop-color="#86fa00"></stop>
        <stop offset="14.285714286%" stop-color="#ffdb00"></stop>
        <stop offset="21.428571429%" stop-color="#ff8d00"></stop>
        <stop offset="28.571428572%" stop-color="#ff0001"></stop>
        <stop offset="35.714285715%" stop-color="#ff0068"></stop>
        <stop offset="42.857142857%" stop-color="#ff00ce"></stop>
        <stop offset="50%" stop-color="#ff00ff"></stop>
        <stop offset="57.142857143%" stop-color="#ff2eff"></stop>
        <stop offset="64.285714286%" stop-color="#b437ff"></stop>
        <stop offset="71.428571429%" stop-color="#616aff"></stop>
        <stop offset="78.571428572%" stop-color="#00c0ff"></stop>
        <stop offset="85.714285715%" stop-color="#00d8ff"></stop>
        <stop offset="92.857142858%" stop-color="#00ffff"></stop>
        <stop offset="100%" stop-color="#00ff00"></stop>
    </linearGradient>
    <pattern id="sliding-rainbow" x="0" y="0" width="100%" height="100%" patternUnits="userSpaceOnUse">
        <rect x="-941.336%" y="0" width="2000%" height="100%" fill="url(#rainbow)">
        <animate attributeType="XML" attributeName="x" from="-1900%" to="100%" dur="5s" repeatCount="indefinite"></animate>
        </rect>
        <rect x="-2368.6%" y="0" width="2000%" height="100%" fill="url(#rainbow)">
        <animate attributeType="XML" attributeName="x" from="-2800%" to="-1900%" dur="5s" repeatCount="indefinite"></animate>
        </rect>
    </pattern>

    <!--<use class="logo-primary" xmlns:xlink="http://www.w3.org/1999/xlink" xlink:href="#main" x="0" y="0"></use>-->
    <use xlink:href="#taijs-logo-shape-horizontal" x="0" y="0" style="fill: url(#sliding-rainbow)"></use>
</svg>